# xmcd
#
# Track frame offsets: 
#        150
#        11980
#        27945
#        42410
#        57490
#        72897
#        83405
#        97047
#        106860
#        123947
#
# Disc length: 1842 seconds
#
# Revision: 6
# Processed by: cddbd v1.5.2PL0 Copyright (c) Steve Scherf et al.
# Submitted via: ExactAudioCopy v1.0b3
#
DISCID=7e07300a
DTITLE=Harris, Emmylou - Roses In The Snow [OAS]
DYEAR=1980
DGENRE=Country
TTITLE0=Roses In The Snow
TTITLE1=Wayfaring Stranger
TTITLE2=Green Pastures
TTITLE3=The Boxer
TTITLE4=Darkest Hour Is Just Before Dawn
TTITLE5=I'll Go Stepping Too
TTITLE6=You're Learning
TTITLE7=Harris, Emmylou with Johnny Cash - Jordan
TTITLE8=Miss The Mississippi And You
TTITLE9=Gold Watch And Chain
EXTD=YEAR: 1980
EXTT0=
EXTT1=
EXTT2=
EXTT3=
EXTT4=
EXTT5=
EXTT6=
EXTT7=
EXTT8=
EXTT9=
PLAYORDER=
